<?xml version="1.0" standalone="no"?>
<!DOCTYPE svg PUBLIC "-//W3C//DTD SVG 20010904//EN"
 "http://www.w3.org/TR/2001/REC-SVG-20010904/DTD/svg10.dtd">
<svg version="1.0" xmlns="http://www.w3.org/2000/svg"
 width="1024.000000pt" height="1024.000000pt" viewBox="0 0 1024.000000 1024.000000"
 preserveAspectRatio="xMidYMid meet">
<metadata>
Created by potrace 1.11, written by Peter Selinger 2001-2013
</metadata>
<g transform="translate(0.000000,1024.000000) scale(0.100000,-0.100000)"
fill="#000000" stroke="none">
<path d="M0 5400 l0 -4840 5120 0 5120 0 0 4840 0 4840 -5120 0 -5120 0 0
-4840z m3709 2589 c400 -68 800 -284 1073 -578 85 -93 194 -236 238 -313 l32
-58 57 6 c150 15 464 -33 668 -101 201 -67 366 -154 548 -291 243 -181 465
-455 580 -717 l30 -67 75 6 c82 7 249 -8 370 -32 195 -39 434 -146 608 -270
114 -83 278 -250 364 -375 188 -271 279 -564 279 -900 1 -496 -226 -956 -616
-1249 -200 -150 -399 -240 -656 -297 -80 -17 -176 -18 -2034 -18 -1596 0
-1962 2 -2015 13 -161 34 -332 105 -463 194 -82 55 -243 216 -297 297 -208
311 -266 701 -154 1046 15 44 33 93 41 108 8 16 13 30 11 31 -2 2 -32 20 -68
41 -326 193 -613 527 -764 887 -212 506 -201 1079 29 1563 288 603 846 1005
1513 1091 145 18 390 11 551 -17z"/>
</g>
</svg>
